<svg width="23" height="27" viewBox="0 0 23 27" fill="none" xmlns="http://www.w3.org/2000/svg">
<g filter="url(#filter0_b_710_2)">
<g filter="url(#filter1_b_710_2)">
<path d="M10.9453 12.7803C12.7011 12.7803 14.2214 12.1506 15.4636 10.9081C16.7058 9.6659 17.3355 8.14594 17.3355 6.38996C17.3355 4.63458 16.7058 3.11442 15.4634 1.87177C14.221 0.629725 12.7009 0 10.9453 0C9.18941 0 7.66949 0.629725 6.42729 1.87197C5.18508 3.11421 4.55518 4.63438 4.55518 6.38996C4.55518 8.14594 5.18508 9.66611 6.42749 10.9083C7.6699 12.1504 9.19001 12.7803 10.9453 12.7803Z" fill="black"/>
<path d="M15.1054 10.5499L15.1053 10.55C13.9581 11.6974 12.5667 12.2737 10.9453 12.2737C9.32449 12.2737 7.93316 11.6973 6.78565 10.5501C5.63823 9.40279 5.06177 8.01148 5.06177 6.38996C5.06177 4.76884 5.63823 3.37749 6.78551 2.23018C7.93276 1.0829 9.32383 0.506594 10.9453 0.506594C12.5664 0.506594 13.9577 1.08287 15.1051 2.22995C16.2526 3.37767 16.8289 4.76902 16.8289 6.38996C16.8289 8.01153 16.2526 9.40265 15.1054 10.5499Z" stroke="url(#paint0_linear_710_2)" stroke-width="1.01319"/>
</g>
<g filter="url(#filter2_b_710_2)">
<path d="M22.0905 20.4084C22.0546 19.8885 21.9821 19.3214 21.8754 18.7225C21.7677 18.1192 21.629 17.5489 21.4629 17.0276C21.2914 16.4888 21.0581 15.9567 20.7698 15.4468C20.4705 14.9176 20.1189 14.4567 19.7244 14.0775C19.312 13.6808 18.8069 13.3618 18.2229 13.1292C17.6409 12.8977 16.996 12.7805 16.3061 12.7805C16.0351 12.7805 15.7731 12.8922 15.267 13.2234C14.9556 13.4276 14.5913 13.6637 14.1847 13.9248C13.837 14.1475 13.366 14.3562 12.7842 14.5451C12.2166 14.7297 11.6403 14.8233 11.0715 14.8233C10.5026 14.8233 9.92652 14.7297 9.3583 14.5451C8.77713 14.3564 8.30612 14.1477 7.95883 13.925C7.55606 13.6663 7.19156 13.4302 6.87546 13.2232C6.37002 12.892 6.10779 12.7803 5.83684 12.7803C5.14672 12.7803 4.50197 12.8977 3.92019 13.1294C3.33658 13.3616 2.83135 13.6806 2.41845 14.0777C2.02418 14.4571 1.67244 14.9178 1.37355 15.4468C1.0854 15.9567 0.852117 16.4886 0.680398 17.0278C0.514551 17.5491 0.375839 18.1192 0.268109 18.7225C0.161392 19.3206 0.0888972 19.8879 0.0530549 20.409C0.0178199 20.9195 0 21.4493 0 21.9844C0 23.3771 0.440436 24.5046 1.30896 25.3361C2.16674 26.1566 3.30175 26.5729 4.68199 26.5729H17.4621C18.8424 26.5729 19.977 26.1568 20.835 25.3361C21.7037 24.5052 22.1441 23.3776 22.1441 21.9842C22.1439 21.4467 22.1259 20.9164 22.0905 20.4084Z" fill="black"/>
<path d="M21.5851 20.4436L21.5851 20.4432C21.5507 19.9443 21.4807 19.3955 21.3767 18.8116L21.5851 20.4436ZM21.5851 20.4436C21.6197 20.9393 21.6373 21.4578 21.6375 21.9842L21.5851 20.4436ZM20.9802 17.1813L20.9802 17.1812C20.8196 16.6768 20.6006 16.1768 20.3288 15.6962C20.0509 15.2048 19.7286 14.7842 19.3734 14.4427L19.3733 14.4426C19.0125 14.0956 18.5646 13.8106 18.0355 13.5998L20.9802 17.1813ZM20.9802 17.1813C21.1387 17.679 21.2724 18.2274 21.3767 18.8114L20.9802 17.1813ZM7.68538 14.3515L7.68505 14.3513C7.28135 14.092 6.91556 13.855 6.59792 13.647L6.59782 13.6469C6.09578 13.318 5.94471 13.2869 5.83684 13.2869C5.20436 13.2869 4.62394 13.3944 4.10758 13.6L4.1075 13.6001C3.57892 13.8104 3.13092 14.0954 2.76973 14.4427L7.68538 14.3515ZM7.68538 14.3515C8.08207 14.6059 8.59721 14.8306 9.20176 15.0269L7.68538 14.3515ZM1.81462 15.696L1.81459 15.696C1.54296 16.1767 1.32391 16.6766 1.16315 17.1814L1.81462 15.696ZM1.81462 15.696C2.0919 15.2052 2.41436 14.7847 2.76963 14.4428L1.81462 15.696ZM0.558455 20.4437L0.558446 20.4438C0.52405 20.9422 0.506594 21.4604 0.506594 21.9844C0.506594 23.2626 0.906491 24.2494 1.65913 24.97L0.558455 20.4437ZM0.558455 20.4437C0.592855 19.9436 0.662778 19.3946 0.766815 18.8116L0.558455 20.4437ZM20.4848 24.97L20.4848 24.97C21.2375 24.2501 21.6375 23.2633 21.6375 21.9844L20.4848 24.97ZM20.4848 24.97C19.7363 25.686 18.7346 26.0663 17.4621 26.0663H4.68199C3.40955 26.0663 2.40753 25.6858 1.65929 24.9702L20.4848 24.97ZM14.4579 14.3514L14.4584 14.3511L9.20187 15.0269C9.81799 15.2271 10.4468 15.3299 11.0715 15.3299C11.6961 15.3299 12.3252 15.2271 12.9409 15.0268C13.546 14.8303 14.061 14.6057 14.4579 14.3514ZM16.3061 13.2871C16.9383 13.2871 17.5189 13.3944 18.0354 13.5998L15.267 13.2234L15.5444 13.6473C15.5446 13.6472 15.5447 13.6472 15.5448 13.6471C16.0474 13.3182 16.1982 13.2871 16.3061 13.2871ZM0.766825 18.8115C0.871099 18.2276 1.00475 17.6793 1.1631 17.1815L0.766825 18.8115Z" stroke="url(#paint1_linear_710_2)" stroke-width="1.01319"/>
</g>
</g>
<defs>
<filter id="filter0_b_710_2" x="-4.87343" y="-4.87343" width="31.8909" height="36.3197" filterUnits="userSpaceOnUse" color-interpolation-filters="sRGB">
<feFlood flood-opacity="0" result="BackgroundImageFix"/>
<feGaussianBlur in="BackgroundImageFix" stdDeviation="2.43672"/>
<feComposite in2="SourceAlpha" operator="in" result="effect1_backgroundBlur_710_2"/>
<feBlend mode="normal" in="SourceGraphic" in2="effect1_backgroundBlur_710_2" result="shape"/>
</filter>
<filter id="filter1_b_710_2" x="-0.318257" y="-4.87343" width="22.5271" height="22.5271" filterUnits="userSpaceOnUse" color-interpolation-filters="sRGB">
<feFlood flood-opacity="0" result="BackgroundImageFix"/>
<feGaussianBlur in="BackgroundImageFix" stdDeviation="2.43672"/>
<feComposite in2="SourceAlpha" operator="in" result="effect1_backgroundBlur_710_2"/>
<feBlend mode="normal" in="SourceGraphic" in2="effect1_backgroundBlur_710_2" result="shape"/>
</filter>
<filter id="filter2_b_710_2" x="-4.87343" y="7.90684" width="31.8909" height="23.5395" filterUnits="userSpaceOnUse" color-interpolation-filters="sRGB">
<feFlood flood-opacity="0" result="BackgroundImageFix"/>
<feGaussianBlur in="BackgroundImageFix" stdDeviation="2.43672"/>
<feComposite in2="SourceAlpha" operator="in" result="effect1_backgroundBlur_710_2"/>
<feBlend mode="normal" in="SourceGraphic" in2="effect1_backgroundBlur_710_2" result="shape"/>
</filter>
<linearGradient id="paint0_linear_710_2" x1="6.58959" y1="1.48892" x2="14.7421" y2="11.586" gradientUnits="userSpaceOnUse">
<stop stop-color="white" stop-opacity="0.25"/>
<stop offset="1" stop-color="white" stop-opacity="0"/>
</linearGradient>
<linearGradient id="paint1_linear_710_2" x1="3.52498" y1="14.3871" x2="10.7502" y2="28.7542" gradientUnits="userSpaceOnUse">
<stop stop-color="white" stop-opacity="0.25"/>
<stop offset="1" stop-color="white" stop-opacity="0"/>
</linearGradient>
</defs>
</svg>
