<svg width="24" height="29" viewBox="0 0 24 29" fill="none" xmlns="http://www.w3.org/2000/svg">
<g filter="url(#filter0_b_735_5)">
<g filter="url(#filter1_b_735_5)">
<path d="M11.9453 13.7803C13.7011 13.7803 15.2214 13.1506 16.4636 11.9081C17.7058 10.6659 18.3355 9.14594 18.3355 7.38996C18.3355 5.63458 17.7058 4.11442 16.4634 2.87177C15.221 1.62972 13.7009 1 11.9453 1C10.1894 1 8.66949 1.62972 7.42729 2.87197C6.18508 4.11421 5.55518 5.63438 5.55518 7.38996C5.55518 9.14594 6.18508 10.6661 7.42749 11.9083C8.6699 13.1504 10.19 13.7803 11.9453 13.7803Z" fill="url(#paint0_linear_735_5)"/>
<path d="M11.9453 13.7803C13.7011 13.7803 15.2214 13.1506 16.4636 11.9081C17.7058 10.6659 18.3355 9.14594 18.3355 7.38996C18.3355 5.63458 17.7058 4.11442 16.4634 2.87177C15.221 1.62972 13.7009 1 11.9453 1C10.1894 1 8.66949 1.62972 7.42729 2.87197C6.18508 4.11421 5.55518 5.63438 5.55518 7.38996C5.55518 9.14594 6.18508 10.6661 7.42749 11.9083C8.6699 13.1504 10.19 13.7803 11.9453 13.7803Z" stroke="url(#paint1_linear_735_5)" stroke-width="1.5" stroke-linecap="round" stroke-linejoin="round"/>
</g>
<g filter="url(#filter2_b_735_5)">
<path d="M23.0905 21.4084C23.0546 20.8885 22.9821 20.3214 22.8754 19.7225C22.7677 19.1192 22.629 18.5489 22.4629 18.0276C22.2914 17.4888 22.0581 16.9567 21.7698 16.4468C21.4705 15.9176 21.1189 15.4567 20.7245 15.0775C20.312 14.6808 19.8069 14.3618 19.2229 14.1292C18.6409 13.8977 17.996 13.7805 17.3061 13.7805C17.0351 13.7805 16.7731 13.8922 16.267 14.2234C15.9556 14.4276 15.5913 14.6637 15.1847 14.9248C14.837 15.1475 14.366 15.3562 13.7842 15.5451C13.2166 15.7297 12.6403 15.8233 12.0714 15.8233C11.5026 15.8233 10.9265 15.7297 10.3583 15.5451C9.77713 15.3564 9.30612 15.1477 8.95883 14.925C8.55606 14.6663 8.19156 14.4302 7.87546 14.2232C7.37002 13.892 7.10779 13.7803 6.83684 13.7803C6.14672 13.7803 5.50197 13.8977 4.92019 14.1294C4.33658 14.3616 3.83135 14.6806 3.41845 15.0777C3.02418 15.4571 2.67244 15.9178 2.37355 16.4468C2.0854 16.9567 1.85212 17.4886 1.6804 18.0278C1.51455 18.5491 1.37584 19.1192 1.26811 19.7225C1.16139 20.3206 1.0889 20.8879 1.05305 21.409C1.01782 21.9195 1 22.4493 1 22.9844C1 24.3771 1.44044 25.5046 2.30896 26.3361C3.16674 27.1566 4.30175 27.5729 5.68199 27.5729H18.4621C19.8424 27.5729 20.977 27.1568 21.835 26.3361C22.7037 25.5052 23.1441 24.3775 23.1441 22.9842C23.1439 22.4467 23.1259 21.9164 23.0905 21.4084V21.4084Z" fill="url(#paint2_linear_735_5)"/>
<path d="M23.0905 21.4084C23.0546 20.8885 22.9821 20.3214 22.8754 19.7225C22.7677 19.1192 22.629 18.5489 22.4629 18.0276C22.2914 17.4888 22.0581 16.9567 21.7698 16.4468C21.4705 15.9176 21.1189 15.4567 20.7245 15.0775C20.312 14.6808 19.8069 14.3618 19.2229 14.1292C18.6409 13.8977 17.996 13.7805 17.3061 13.7805C17.0351 13.7805 16.7731 13.8922 16.267 14.2234C15.9556 14.4276 15.5913 14.6637 15.1847 14.9248C14.837 15.1475 14.366 15.3562 13.7842 15.5451C13.2166 15.7297 12.6403 15.8233 12.0714 15.8233C11.5026 15.8233 10.9265 15.7297 10.3583 15.5451C9.77713 15.3564 9.30612 15.1477 8.95883 14.925C8.55606 14.6663 8.19156 14.4302 7.87546 14.2232C7.37002 13.892 7.10779 13.7803 6.83684 13.7803C6.14672 13.7803 5.50197 13.8977 4.92019 14.1294C4.33658 14.3616 3.83135 14.6806 3.41845 15.0777C3.02418 15.4571 2.67244 15.9178 2.37355 16.4468C2.0854 16.9567 1.85212 17.4886 1.6804 18.0278C1.51455 18.5491 1.37584 19.1192 1.26811 19.7225C1.16139 20.3206 1.0889 20.8879 1.05305 21.409C1.01782 21.9195 1 22.4493 1 22.9844C1 24.3771 1.44044 25.5046 2.30896 26.3361C3.16674 27.1566 4.30175 27.5729 5.68199 27.5729H18.4621C19.8424 27.5729 20.977 27.1568 21.835 26.3361C22.7037 25.5052 23.1441 24.3775 23.1441 22.9842C23.1439 22.4467 23.1259 21.9164 23.0905 21.4084V21.4084Z" stroke="url(#paint3_linear_735_5)" stroke-width="1.5" stroke-linecap="round" stroke-linejoin="round"/>
</g>
</g>
<defs>
<filter id="filter0_b_735_5" x="-4.62343" y="-4.62343" width="33.3909" height="37.8197" filterUnits="userSpaceOnUse" color-interpolation-filters="sRGB">
<feFlood flood-opacity="0" result="BackgroundImageFix"/>
<feGaussianBlur in="BackgroundImageFix" stdDeviation="2.43672"/>
<feComposite in2="SourceAlpha" operator="in" result="effect1_backgroundBlur_735_5"/>
<feBlend mode="normal" in="SourceGraphic" in2="effect1_backgroundBlur_735_5" result="shape"/>
</filter>
<filter id="filter1_b_735_5" x="-0.0682573" y="-4.62343" width="24.0271" height="24.0271" filterUnits="userSpaceOnUse" color-interpolation-filters="sRGB">
<feFlood flood-opacity="0" result="BackgroundImageFix"/>
<feGaussianBlur in="BackgroundImageFix" stdDeviation="2.43672"/>
<feComposite in2="SourceAlpha" operator="in" result="effect1_backgroundBlur_735_5"/>
<feBlend mode="normal" in="SourceGraphic" in2="effect1_backgroundBlur_735_5" result="shape"/>
</filter>
<filter id="filter2_b_735_5" x="-4.62343" y="8.15684" width="33.3909" height="25.0395" filterUnits="userSpaceOnUse" color-interpolation-filters="sRGB">
<feFlood flood-opacity="0" result="BackgroundImageFix"/>
<feGaussianBlur in="BackgroundImageFix" stdDeviation="2.43672"/>
<feComposite in2="SourceAlpha" operator="in" result="effect1_backgroundBlur_735_5"/>
<feBlend mode="normal" in="SourceGraphic" in2="effect1_backgroundBlur_735_5" result="shape"/>
</filter>
<linearGradient id="paint0_linear_735_5" x1="16.8095" y1="2.68334" x2="5.88808" y2="19.0653" gradientUnits="userSpaceOnUse">
<stop offset="0.117914" stop-color="#FF8F71"/>
<stop offset="1" stop-color="#EF2D1A"/>
</linearGradient>
<linearGradient id="paint1_linear_735_5" x1="7.58959" y1="2.48892" x2="15.7421" y2="12.586" gradientUnits="userSpaceOnUse">
<stop stop-color="white" stop-opacity="0.25"/>
<stop offset="1" stop-color="white" stop-opacity="0"/>
</linearGradient>
<linearGradient id="paint2_linear_735_5" x1="20.5" y1="15.5969" x2="11.4554" y2="37.3785" gradientUnits="userSpaceOnUse">
<stop offset="0.117914" stop-color="#FF8F71"/>
<stop offset="1" stop-color="#EF2D1A"/>
</linearGradient>
<linearGradient id="paint3_linear_735_5" x1="4.52498" y1="15.3871" x2="11.7502" y2="29.7542" gradientUnits="userSpaceOnUse">
<stop stop-color="white" stop-opacity="0.25"/>
<stop offset="1" stop-color="white" stop-opacity="0"/>
</linearGradient>
</defs>
</svg>
