<svg width="43" height="46" viewBox="0 0 43 46" fill="none" xmlns="http://www.w3.org/2000/svg">
<g filter="url(#filter0_bd_728_2)">
<path d="M27.4 17.8156C27.4 18.6243 27.1455 19.4362 26.6364 20.0863C26.5409 20.2138 26.0955 20.7395 25.7455 21.0817L25.5545 21.2683C22.8818 24.102 16.2318 28.3635 12.8591 29.729C12.8591 29.7601 10.8545 30.572 9.9 30.6H9.77273C8.30909 30.6 6.94091 29.7944 6.24091 28.4879C5.85909 27.7694 5.50909 25.6853 5.47727 25.6573C5.19091 23.7879 5 20.9261 5 17.7844C5 14.4904 5.19091 11.5011 5.54091 9.66586C5.54091 9.63475 5.89091 7.95504 6.11364 7.39514C6.46364 6.5895 7.1 5.90207 7.89545 5.46659C8.53182 5.15864 9.2 5 9.9 5C10.6318 5.03422 12 5.49769 12.5409 5.71543C16.1045 7.08408 22.9136 11.5633 25.5227 14.3006C25.9682 14.7361 26.4455 15.268 26.5727 15.3893C27.1136 16.0736 27.4 16.9135 27.4 17.8156Z" fill="black"/>
<path d="M26.4789 19.963L26.4789 19.9629L26.4762 19.9664C26.3872 20.0855 25.9485 20.6034 25.6056 20.9386L25.4147 21.1253L25.4146 21.1252L25.4091 21.1311C24.089 22.5306 21.7741 24.2942 19.3594 25.8821C16.9457 27.4695 14.4527 28.8681 12.784 29.5437L12.6591 29.5942V29.605C12.6077 29.6273 12.5393 29.6557 12.4569 29.6886C12.2571 29.7682 11.98 29.8723 11.6733 29.9763C11.0521 30.1869 10.3406 30.3862 9.89698 30.4H9.77273C8.38225 30.4 7.08237 29.6345 6.41746 28.394C6.24144 28.0626 6.06346 27.3898 5.9229 26.7695C5.85379 26.4645 5.7955 26.1807 5.75223 25.9701L5.752 25.969C5.73059 25.8648 5.71259 25.7772 5.69894 25.7148C5.69215 25.6837 5.6859 25.6565 5.68049 25.6356C5.67806 25.6262 5.67503 25.6152 5.67152 25.6044C5.38911 23.7478 5.2 20.9073 5.2 17.7844C5.2 14.4942 5.39094 11.5199 5.73737 9.70332L5.74091 9.68476V9.68141L5.74156 9.67777C5.74392 9.665 5.74757 9.64616 5.7525 9.62156C5.7623 9.57258 5.77667 9.50305 5.7947 9.41829C5.83075 9.24882 5.88118 9.01974 5.93851 8.77429C6.0542 8.27899 6.19364 7.73649 6.29834 7.47193C6.62957 6.71134 7.23206 6.05903 7.9871 5.64442C8.5946 5.35123 9.23001 5.20071 9.89526 5.2C10.2352 5.21674 10.7379 5.33442 11.2356 5.48077C11.7309 5.62643 12.2021 5.79464 12.4662 5.90096L12.4662 5.90099L12.4692 5.90214C14.2307 6.57867 16.8097 8.03125 19.2796 9.66169C21.7498 11.2924 24.0893 13.0866 25.378 14.4386L25.3779 14.4387L25.3829 14.4436C25.6026 14.6584 25.8309 14.8977 26.0215 15.0999C26.0661 15.1472 26.109 15.193 26.1495 15.2362C26.27 15.3645 26.3688 15.4698 26.424 15.5237C26.9307 16.1695 27.2 16.9614 27.2 17.8156C27.2 18.5834 26.9582 19.3509 26.4789 19.963ZM5.73932 9.69035L5.73933 9.69027C5.73878 9.69463 5.73848 9.69551 5.73932 9.69035Z" stroke="url(#paint0_linear_728_2)" stroke-width="0.4"/>
</g>
<defs>
<filter id="filter0_bd_728_2" x="-10" y="-10" width="52.3999" height="55.6" filterUnits="userSpaceOnUse" color-interpolation-filters="sRGB">
<feFlood flood-opacity="0" result="BackgroundImageFix"/>
<feGaussianBlur in="BackgroundImageFix" stdDeviation="7.5"/>
<feComposite in2="SourceAlpha" operator="in" result="effect1_backgroundBlur_728_2"/>
<feColorMatrix in="SourceAlpha" type="matrix" values="0 0 0 0 0 0 0 0 0 0 0 0 0 0 0 0 0 0 127 0" result="hardAlpha"/>
<feOffset dx="5" dy="5"/>
<feGaussianBlur stdDeviation="5"/>
<feColorMatrix type="matrix" values="0 0 0 0 0.995833 0 0 0 0 0.338256 0 0 0 0 0.273854 0 0 0 0.15 0"/>
<feBlend mode="normal" in2="effect1_backgroundBlur_728_2" result="effect2_dropShadow_728_2"/>
<feBlend mode="normal" in="SourceGraphic" in2="effect2_dropShadow_728_2" result="shape"/>
</filter>
<linearGradient id="paint0_linear_728_2" x1="8.56572" y1="7.98243" x2="25.217" y2="26.0276" gradientUnits="userSpaceOnUse">
<stop stop-color="white" stop-opacity="0.25"/>
<stop offset="1" stop-color="white" stop-opacity="0"/>
</linearGradient>
</defs>
</svg>
